HIERARCHY
ROOT hip
{
  OFFSET 0 0 0
  CHANNELS 6 Xposition Yposition Zposition Zrotation Yrotation Xrotation
  JOINT abdomen
  {
    OFFSET 0 20.6881 -0.73152
    CHANNELS 3 Zrotation Xrotation Yrotation
    JOINT chest
    {
      OFFSET 0 11.7043 -0.48768
      CHANNELS 3 Zrotation Xrotation Yrotation
      JOINT neck
      {
        OFFSET 0 22.1894 -2.19456
        CHANNELS 3 Zrotation Xrotation Yrotation
        JOINT head
        {
          OFFSET -0.24384 7.07133 1.2192
          CHANNELS 3 Zrotation Xrotation Yrotation
          JOINT leftEye
          {
            OFFSET 4.14528 8.04674 8.04672
            CHANNELS 3 Zrotation Xrotation Yrotation
            End Site
            {
              OFFSET 1 0 0
            }
          }
          JOINT rightEye
          {
            OFFSET -3.6576 8.04674 8.04672
            CHANNELS 3 Zrotation Xrotation Yrotation
            End Site
            {
              OFFSET 1 0 0
            }
          }
        }
      }
      JOINT rCollar
      {
        OFFSET -2.68224 19.2634 -4.8768
        CHANNELS 3 Zrotation Xrotation Yrotation
        JOINT rShldr
        {
          OFFSET -8.77824 -1.95073 1.46304
          CHANNELS 3 Zrotation Xrotation Yrotation
          JOINT rForeArm
          {
            OFFSET -28.1742 -1.7115 0.48768
            CHANNELS 3 Zrotation Xrotation Yrotation
            JOINT rHand
            {
              OFFSET -22.5879 0.773209 7.07136
              CHANNELS 3 Zrotation Xrotation Yrotation
              JOINT rThumb1
              {
                OFFSET -1.2192 -0.487915 3.41376
                CHANNELS 3 Zrotation Xrotation Yrotation
                JOINT rThumb2
                {
                  OFFSET -3.37035 -0.52449 3.41376
                  CHANNELS 3 Zrotation Xrotation Yrotation
                  End Site
                  {
                    OFFSET -1.78271 -1.18214 1.43049
                  }
                }
              }
              JOINT rIndex1
              {
                OFFSET -7.75947 0.938293 5.60832
                CHANNELS 3 Zrotation Xrotation Yrotation
                JOINT rIndex2
                {
                  OFFSET -2.54057 -0.884171 1.56538
                  CHANNELS 3 Zrotation Xrotation Yrotation
                  End Site
                  {
                    OFFSET -1.62519 -0.234802 1.16502
                  }
                }
              }
              JOINT rMid1
              {
                OFFSET -8.24714 1.18213 3.41376
                CHANNELS 3 Zrotation Xrotation Yrotation
                JOINT rMid2
                {
                  OFFSET -3.10165 -0.590103 1.0647
                  CHANNELS 3 Zrotation Xrotation Yrotation
                  End Site
                  {
                    OFFSET -2.48547 -0.328903 0.83742
                  }
                }
              }
              JOINT rRing1
              {
                OFFSET -8.82822 0.546677 1.51678
                CHANNELS 3 Zrotation Xrotation Yrotation
                JOINT rRing2
                {
                  OFFSET -2.60934 -0.819778 -0.0198488
                  CHANNELS 3 Zrotation Xrotation Yrotation
                  End Site
                  {
                    OFFSET -2.33842 -0.294052 0.168128
                  }
                }
              }
              JOINT rPinky1
              {
                OFFSET -8.27202 -0.0477905 -0.4584
                CHANNELS 3 Zrotation Xrotation Yrotation
                JOINT rPinky2
                {
                  OFFSET -1.82734 -0.647385 -0.700984
                  CHANNELS 3 Zrotation Xrotation Yrotation
                  End Site
                  {
                    OFFSET -1.69225 -0.51767 -0.607171
                  }
                }
              }
            }
          }
        }
      }
      JOINT lCollar
      {
        OFFSET 2.68224 19.2634 -4.8768
        CHANNELS 3 Zrotation Xrotation Yrotation
        JOINT lShldr
        {
          OFFSET 8.77824 -1.95073 1.46304
          CHANNELS 3 Zrotation Xrotation Yrotation
          JOINT lForeArm
          {
            OFFSET 28.1742 -1.7115 0.48768
            CHANNELS 3 Zrotation Xrotation Yrotation
            JOINT lHand
            {
              OFFSET 22.5879 0.773209 7.07136
              CHANNELS 3 Zrotation Xrotation Yrotation
              JOINT lThumb1
              {
                OFFSET 1.2192 -0.487915 3.41376
                CHANNELS 3 Zrotation Xrotation Yrotation
                JOINT lThumb2
                {
                  OFFSET 3.37035 -0.52449 3.41376
                  CHANNELS 3 Zrotation Xrotation Yrotation
                  End Site
                  {
                    OFFSET 1.78271 -1.18214 1.43049
                  }
                }
              }
              JOINT lIndex1
              {
                OFFSET 7.75947 0.938293 5.60832
                CHANNELS 3 Zrotation Xrotation Yrotation
                JOINT lIndex2
                {
                  OFFSET 2.54057 -0.884171 1.56538
                  CHANNELS 3 Zrotation Xrotation Yrotation
                  End Site
                  {
                    OFFSET 1.62519 -0.234802 1.16502
                  }
                }
              }
              JOINT lMid1
              {
                OFFSET 8.24714 1.18213 3.41376
                CHANNELS 3 Zrotation Xrotation Yrotation
                JOINT lMid2
                {
                  OFFSET 3.10165 -0.590103 1.0647
                  CHANNELS 3 Zrotation Xrotation Yrotation
                  End Site
                  {
                    OFFSET 2.48547 -0.328903 0.83742
                  }
                }
              }
              JOINT lRing1
              {
                OFFSET 8.82822 0.546677 1.51678
                CHANNELS 3 Zrotation Xrotation Yrotation
                JOINT lRing2
                {
                  OFFSET 2.60934 -0.819778 -0.0198488
                  CHANNELS 3 Zrotation Xrotation Yrotation
                  End Site
                  {
                    OFFSET 2.33842 -0.294052 0.168128
                  }
                }
              }
              JOINT lPinky1
              {
                OFFSET 8.27202 -0.0477905 -0.4584
                CHANNELS 3 Zrotation Xrotation Yrotation
                JOINT lPinky2
                {
                  OFFSET 1.82734 -0.647385 -0.700984
                  CHANNELS 3 Zrotation Xrotation Yrotation
                  End Site
                  {
                    OFFSET 1.69225 -0.51767 -0.607171
                  }
                }
              }
            }
          }
        }
      }
    }
  }
  JOINT rButtock
  {
    OFFSET -8.77824 4.35084 1.2192
    CHANNELS 3 Zrotation Xrotation Yrotation
    JOINT rThigh
    {
      OFFSET 0 -1.70687 -2.19456
      CHANNELS 3 Zrotation Xrotation Yrotation
      JOINT rShin
      {
        OFFSET 0 -36.8199 0.73152
        CHANNELS 3 Zrotation Xrotation Yrotation
        JOINT rFoot
        {
          OFFSET 0.73152 -45.1104 -5.12064
          CHANNELS 3 Zrotation Xrotation Yrotation
          End Site
          {
            OFFSET -1.1221 -3.69964 12.103
          }
        }
      }
    }
  }
  JOINT lButtock
  {
    OFFSET 8.77824 4.35084 1.2192
    CHANNELS 3 Zrotation Xrotation Yrotation
    JOINT lThigh
    {
      OFFSET 0 -1.70687 -2.19456
      CHANNELS 3 Zrotation Xrotation Yrotation
      JOINT lShin
      {
        OFFSET 0 -36.8199 0.73152
        CHANNELS 3 Zrotation Xrotation Yrotation
        JOINT lFoot
        {
          OFFSET -0.73152 -45.1104 -5.12064
          CHANNELS 3 Zrotation Xrotation Yrotation
          End Site
          {
            OFFSET 1.1221 -3.69964 12.103
          }
        }
      }
    }
  }
}
MOTION
Frames:	4
Frame Time:	0.03333
-0.09446685230656542 54.19535174313844 0.0940624837633595 -1.7488020658493042 -0.7570023536682129 6.575161933898926 -3.145318031311035 11.575212478637695 2.893392562866211 1.9809538125991821 -8.24953842163086 1.1310060024261475 -6.334810733795166 14.392095565795898 -2.962463617324829 9.794782638549805 -22.434104919433594 -5.952815055847168 0.644513726234436 0.8645555377006531 0.2653314471244812 -0.5630813241004944 0.41067442297935486 0.6234779953956604 2.2420642375946045 0.07383520156145096 -0.9599326848983765 46.549468994140625 37.047080993652344 15.9127197265625 -27.617427825927734 -22.34600067138672 67.43904113769531 -2.5503814220428467 -10.210089683532715 -1.5272763967514038 -1.5205817222595215 -0.21570183336734772 -0.33359670639038086 0.10672620683908463 -0.051177363842725754 -0.257587194442749 -0.9238187074661255 -0.04310683533549309 -0.258307546377182 7.131792068481445 5.206151962280273 1.50564706325531 0.045993417501449585 0.7956216335296631 0.570928692817688 2.115882396697998 0.020369362086057663 -0.3412339687347412 -0.13176244497299194 0.3767985701560974 -0.4364719092845917 10.383936882019043 2.5115578174591064 -0.23704320192337036 -0.28028997778892517 0.2940649092197418 -0.510953962802887 2.134538173675537 -1.8672950267791748 -0.9831714630126953 -0.12189251184463501 -0.9753549098968506 -0.4087539613246918 -62.008785247802734 35.26728820800781 -18.84200668334961 27.407772064208984 -22.731475830078125 -59.540855407714844 1.92855703830719 -12.128252029418945 1.6034902334213257 0.018218297511339188 1.179282546043396 -1.5962214469909668 -0.45388275384902954 0.16344790160655975 0.23914751410484314 0.6419598460197449 -1.3926228284835815 0.6349925994873047 -9.079126358032227 4.8710198402404785 -0.38084980845451355 -2.332083225250244 0.5879514813423157 1.8703420162200928 -2.982267141342163 2.003134250640869 -0.08325622975826263 -0.5496192574501038 1.055680274963379 0.05999992415308952 -11.34694766998291 0.5063070058822632 0.676858127117157 -0.20641115307807922 1.1124577522277832 -0.029600905254483223 -2.7905406951904297 -1.303633689880371 -0.7602765560150146 0.1611655205488205 -0.05883799493312836 0.061180368065834045 -29.57619285583496 -49.89654541015625 -26.185176849365234 -2.003972291946411 61.91905212402344 5.27686882019043 -5.006220817565918 -8.222944259643555 -14.193934440612793 -0.14103929698467255 -0.15838095545768738 -0.694415807723999 27.140201568603516 -55.689449310302734 21.570880889892578 0.8525055050849915 64.77017974853516 -2.3956031799316406 4.110218524932861 -10.141022682189941 11.608283996582031
-0.00633889579744785 62.99335939416688 0.21085284887675956 -4.002561569213867 1.1878788471221924 12.248329162597656 -2.9366891384124756 13.352630615234375 4.586378574371338 2.506258487701416 -10.141608238220215 1.4735939502716064 -4.7039055824279785 14.445760726928711 -2.7741992473602295 10.469085693359375 -22.216007232666016 -4.134974479675293 0.13898839056491852 -0.41596078872680664 0.11207718402147293 0.4630606770515442 -0.19690260291099548 -0.42420899868011475 -0.16308368742465973 -0.07543385773897171 0.2835250794887543 45.93391799926758 36.87820053100586 15.944112777709961 -27.76249885559082 -26.07806396484375 68.06267547607422 -0.8387923836708069 -10.72146224975586 -1.0042062997817993 0.725290834903717 -0.2392829954624176 0.39815080165863037 -0.25564610958099365 -0.2424629032611847 0.13668608665466309 0.39555710554122925 -0.0920596495270729 0.12718209624290466 7.7935614585876465 6.453429222106934 0.22620514035224915 -0.1229926347732544 -0.3186025619506836 -0.39800187945365906 3.477112293243408 1.7714046239852905 0.7774043679237366 0.12911604344844818 -0.19191430509090424 0.12192483991384506 10.35366153717041 0.014777443371713161 0.2260255217552185 0.25667259097099304 -0.4932895004749298 0.26397255063056946 2.5421228408813477 -0.4211384952068329 0.22732938826084137 0.12128275632858276 0.8265256285667419 0.43716946244239807 -56.48078536987305 37.563995361328125 -24.794105529785156 26.934968948364258 -22.537826538085938 -63.455604553222656 1.9239763021469116 -11.971880912780762 1.4659786224365234 0.1912146508693695 -0.7506470084190369 0.917942464351654 0.22082863748073578 0.053051602095365524 0.24340106546878815 -0.5193422436714172 0.16677626967430115 -0.7093070149421692 -7.590464115142822 5.46906042098999 -0.37877199053764343 0.7589741945266724 -0.5453462600708008 -0.928246796131134 -3.3193018436431885 0.40536102652549744 -0.24707360565662384 0.16511747241020203 -0.13800334930419922 -0.07452253997325897 -9.70767593383789 1.2424867153167725 -0.501469075679779 0.057981226593256 -0.3149559199810028 -0.10548286139965057 -2.2975378036499023 -0.16192586719989777 0.625618040561676 -0.37104547023773193 -0.27499285340309143 0.10643653571605682 -27.518606185913086 -45.5427131652832 -23.601959228515625 -0.377429336309433 63.57670974731445 2.593374729156494 -6.496176242828369 -9.207609176635742 -12.5291109085083 -0.09683409333229065 0.26088425517082214 -0.31022724509239197 30.306047439575195 -49.698455810546875 23.261367797851562 1.240922451019287 66.90773010253906 -2.4112908840179443 4.6074700355529785 -11.009944915771484 10.76364803314209
-0.028021651482770672 62.29275957024199 0.3310064951870091 -6.171191692352295 -8.405917167663574 7.842504501342773 -0.6238998174667358 13.619153022766113 4.718710422515869 2.635075569152832 -9.427958488464355 1.4343369007110596 -3.5558884143829346 14.068873405456543 -2.9292445182800293 9.592236518859863 -22.900184631347656 -0.47091981768608093 -0.47871389985084534 -0.1892349272966385 -0.2590098977088928 -0.07088115811347961 0.03280802443623543 -0.10988208651542664 -0.7575966119766235 0.09311757981777191 -0.07560533285140991 49.82091522216797 41.01677322387695 13.970073699951172 -25.239713668823242 -26.06886863708496 67.59236145019531 -2.011225700378418 -14.462178230285645 -2.6005523204803467 0.0014910149620845914 0.6184147596359253 0.5271256566047668 -0.1387769877910614 0.7885951995849609 0.13102640211582184 0.4606988728046417 -0.03281697258353233 -0.3015243411064148 7.645939826965332 4.916133403778076 -1.0764706134796143 0.2345263808965683 -1.0979911088943481 -0.20328585803508759 2.901158332824707 1.5881555080413818 -0.4972844421863556 0.1950981318950653 -0.21300223469734192 0.3978726267814636 10.558219909667969 0.23603661358356476 -0.440290629863739 0.03251206874847412 -0.1693859100341797 0.06447814404964447 2.2871618270874023 -1.0134984254837036 0.03079315833747387 0.15694303810596466 0.39869624376296997 0.09333780407905579 -52.32557678222656 34.86437225341797 -30.3813533782959 24.95172119140625 -21.299287796020508 -61.793853759765625 2.2444007396698 -8.741096496582031 1.2737200260162354 -0.24891826510429382 -0.33830955624580383 0.43523216247558594 -0.31417155265808105 0.10679277777671814 0.3569341003894806 -0.20555999875068665 0.41020649671554565 0.19028984010219574 -7.413438320159912 4.92476224899292 -0.36485493183135986 0.22050832211971283 -0.010412853211164474 -0.6612328886985779 -2.636073589324951 1.2733501195907593 -0.1477150321006775 0.47028157114982605 -0.28105059266090393 -0.04543164744973183 -9.754199028015137 0.9065446257591248 -0.08011815696954727 0.4604550898075104 0.23339584469795227 0.03794402256608009 -2.6953611373901367 -0.1864180862903595 0.6689085364341736 0.6168384552001953 -0.41454073786735535 -0.025359485298395157 -16.70069694519043 -35.91417694091797 -13.469962120056152 -1.4262850284576416 61.117557525634766 2.45717191696167 -5.995561122894287 -11.979168891906738 -12.696892738342285 0.2863674461841583 -0.02453906461596489 -0.10420273244380951 32.03683853149414 -47.35661697387695 22.937387466430664 1.3663992881774902 65.78883361816406 -2.7080092430114746 4.810444355010986 -8.330434799194336 9.914395332336426
-0.14683247193002513 62.251942359762 0.16276671629428308 -8.462591171264648 -16.57649040222168 4.947993755340576 3.1506004333496094 12.161383628845215 5.4888811111450195 1.4565268754959106 -8.472004890441895 1.8455129861831665 -3.359556198120117 13.854853630065918 -0.6897696852684021 7.471879482269287 -23.061872482299805 2.9844939708709717 0.365799218416214 0.0021306241396814585 -0.6615626215934753 -0.21692736446857452 -0.6012380123138428 0.015238147228956223 -0.25389212369918823 0.3566089868545532 -0.30511894822120667 57.789306640625 47.87233352661133 5.41746711730957 -25.56747055053711 -24.555496215820312 64.43551635742188 -2.097882032394409 -16.209959030151367 -2.375145196914673 -0.2787432074546814 0.666885256767273 0.029048284515738487 0.19090630114078522 0.43697962164878845 0.3269229233264923 0.4125192165374756 0.0975300595164299 -0.592286229133606 8.066193580627441 4.914287090301514 -0.3451845049858093 -0.2893211841583252 -1.1384648084640503 -0.1646771878004074 3.135472297668457 1.5361396074295044 -0.52296382188797 0.08733297139406204 -0.1815333366394043 0.9215832948684692 10.456280708312988 0.81228107213974 -0.7205045223236084 -0.10570228099822998 0.4122234880924225 0.022352224215865135 2.1164538860321045 -1.6771303415298462 -0.7782708406448364 0.3900024890899658 0.002738430630415678 -0.25242865085601807 -54.254756927490234 28.138736724853516 -31.984582901000977 22.111766815185547 -15.873786926269531 -51.94153594970703 1.342650055885315 2.278599739074707 -0.16671356558799744 -0.3786987364292145 -0.10686671733856201 0.17477893829345703 -0.5105696320533752 0.007787190843373537 0.6366845369338989 -0.3608296513557434 -0.1116892546415329 -0.22449180483818054 -7.461814880371094 4.984648704528809 -0.4594305455684662 -1.0601372718811035 0.25790610909461975 -0.40343379974365234 -2.560197353363037 1.6401199102401733 -0.25271737575531006 0.7337446808815002 -0.2794847786426544 -0.1271502822637558 -9.85647964477539 1.0346856117248535 0.08823169022798538 0.06530057638883591 0.5180325508117676 0.10298265516757965 -2.3732385635375977 -0.4316050708293915 0.8863680362701416 0.7258918285369873 -1.1234489679336548 0.16937673091888428 -9.68895149230957 -19.858247756958008 -7.819965839385986 -1.6771025657653809 53.903472900390625 2.71488881111145 -7.810214042663574 -15.248656272888184 -19.62468910217285 0.011233203113079071 -0.004576141946017742 -0.23608775436878204 42.16655731201172 -53.71318435668945 31.209299087524414 2.168747901916504 69.32331085205078 -2.7581751346588135 2.3158390522003174 -3.6777119636535645 6.47410249710083
